HIERARCHY
ROOT joint_Root
{
	OFFSET 0.0 0.0 0.0
	CHANNELS 6 Xposition Yposition Zposition Zrotation Xrotation Yrotation 
	JOINT Hips
	{
		OFFSET 4.5925 91.4895 -427.239
		CHANNELS 6 Xposition Yposition Zposition Zrotation Xrotation Yrotation 
		JOINT Spine
		{
			OFFSET 15.7357 0.0 0.0
			CHANNELS 6 Xposition Yposition Zposition Zrotation Xrotation Yrotation 
			JOINT Chest
			{
				OFFSET 8.98455 -0.406207 0.0
				CHANNELS 6 Xposition Yposition Zposition Zrotation Xrotation Yrotation 
				JOINT Neck
				{
					OFFSET 16.3773 0.0 0.0
					CHANNELS 6 Xposition Yposition Zposition Zrotation Xrotation Yrotation 
					JOINT Head
					{
						OFFSET 6.45672 0.0 0.0
						CHANNELS 6 Xposition Yposition Zposition Zrotation Xrotation Yrotation 
						End Site
						{
							OFFSET 0.0 0.0 0.0
						}
					}
				}
				JOINT Shoulder_L
				{
					OFFSET 12.9942 -0.242716 4.98039
					CHANNELS 6 Xposition Yposition Zposition Zrotation Xrotation Yrotation 
					JOINT UpperArm_L
					{
						OFFSET 5.34809 0.0 0.0
						CHANNELS 6 Xposition Yposition Zposition Zrotation Xrotation Yrotation 
						JOINT LowerArm_L
						{
							OFFSET 24.3286 1.87007e-05 0.0
							CHANNELS 6 Xposition Yposition Zposition Zrotation Xrotation Yrotation 
							JOINT Hand_L
							{
								OFFSET 22.2916 0.0 0.0
								CHANNELS 6 Xposition Yposition Zposition Zrotation Xrotation Yrotation 
								End Site
								{
									OFFSET 0.0 0.0 0.0
								}
							}
						}
					}
				}
				JOINT Shoulder_R
				{
					OFFSET 12.9945 -0.242716 -4.98039
					CHANNELS 6 Xposition Yposition Zposition Zrotation Xrotation Yrotation 
					JOINT UpperArm_R
					{
						OFFSET -5.34813 0.0 0.0
						CHANNELS 6 Xposition Yposition Zposition Zrotation Xrotation Yrotation 
						JOINT LowerArm_R
						{
							OFFSET -24.3289 0.000322201 0.0
							CHANNELS 6 Xposition Yposition Zposition Zrotation Xrotation Yrotation 
							JOINT Hand_R
							{
								OFFSET -22.2915 -0.000108084 0.0
								CHANNELS 6 Xposition Yposition Zposition Zrotation Xrotation Yrotation 
								End Site
								{
									OFFSET 0.0 0.0 0.0
								}
							}
						}
					}
				}
			}
		}
		JOINT UpperLeg_L
		{
			OFFSET -2.19248 -6.46944 0.0
			CHANNELS 6 Xposition Yposition Zposition Zrotation Xrotation Yrotation 
			JOINT LowerLeg_L
			{
				OFFSET 39.0811 0.0 -1.23785e-05
				CHANNELS 6 Xposition Yposition Zposition Zrotation Xrotation Yrotation 
				JOINT Foot_L
				{
					OFFSET 40.9854 0.0 -1.26872e-05
					CHANNELS 6 Xposition Yposition Zposition Zrotation Xrotation Yrotation 
					JOINT Toes_L
					{
						OFFSET 11.7543 0.0 0.0
						CHANNELS 6 Xposition Yposition Zposition Zrotation Xrotation Yrotation 
						End Site
						{
							OFFSET 0.0 0.0 0.0
						}
					}
				}
			}
		}
		JOINT UpperLeg_R
		{
			OFFSET -2.19251 6.46944 0.0
			CHANNELS 6 Xposition Yposition Zposition Zrotation Xrotation Yrotation 
			JOINT LowerLeg_R
			{
				OFFSET -39.0811 -0.00228153 -0.0401928
				CHANNELS 6 Xposition Yposition Zposition Zrotation Xrotation Yrotation 
				JOINT Foot_R
				{
					OFFSET -40.9854 0.0 0.0
					CHANNELS 6 Xposition Yposition Zposition Zrotation Xrotation Yrotation 
					JOINT Toes_R
					{
						OFFSET -11.7543 0.0 0.0
						CHANNELS 6 Xposition Yposition Zposition Zrotation Xrotation Yrotation 
						End Site
						{
							OFFSET 0.0 0.0 0.0
						}
					}
				}
			}
		}
	}
}
MOTION
Frames:	7
Frame Time:	0.0333333
0.000000 0.000000 0.000000 0.000000 0.000000 -0.000000 -0.876694 90.389000 5.570250 89.279700 -2.580700 8.159450 15.735700 0.000005 -0.000001 71.285700 88.638100 -71.030900 8.984550 -0.406207 -0.000000 -5.184450 -0.901775 0.469335 16.377300 -0.000001 -0.000001 -0.180352 -4.257720 2.965510 6.456720 -0.000001 -0.000000 7.525200 -3.491170 -2.588800 12.994200 -0.242716 4.980390 -86.508200 -8.959940 -68.605000 5.348090 -0.000007 -0.000001 -56.676500 -43.247700 -97.497100 24.328600 0.000019 0.000005 16.379600 16.917500 -45.287300 22.291600 -0.000001 0.000005 24.000800 5.244930 1.566290 12.994500 -0.242716 -4.980390 91.769500 -6.664350 -75.093100 -5.348130 -0.000001 -0.000004 -49.698000 -40.842800 -92.239000 -24.328900 0.000322 -0.000009 5.057780 4.812770 -46.536600 -22.291500 -0.000108 -0.000004 23.239800 5.449750 -4.630660 -2.192480 -6.469440 -0.000000 -173.184000 -12.730100 3.911180 39.081100 -0.000007 -0.000012 -0.249577 0.458012 28.587000 40.985400 -0.000006 -0.000013 -0.318378 6.920880 -73.819200 11.754300 -0.000000 0.000003 -0.000220 -0.002004 -16.652900 -2.192510 6.469440 -0.000001 172.011000 22.003900 -174.280000 -39.081100 -0.002282 -0.040193 -0.109938 0.214886 27.789400 -40.985400 0.000008 0.000006 6.821430 18.086500 -75.626500 -11.754300 -0.000006 -0.000006 -0.000630 -0.010005 -16.980200
0.000000 0.000000 0.000000 0.000000 0.000000 -0.000000 -0.878177 90.426000 5.583200 89.254500 -2.662610 7.941250 15.735700 0.000005 -0.000001 71.652300 88.659200 -71.403100 8.984550 -0.406207 -0.000000 -5.219160 -0.871389 0.459178 16.377300 -0.000001 -0.000001 -0.145365 -4.284400 2.996970 6.456720 -0.000001 -0.000000 7.398810 -3.520930 -2.612820 12.994200 -0.242716 4.980390 -86.503400 -8.916270 -68.483700 5.348090 -0.000007 -0.000001 -56.586700 -43.760300 -97.766700 24.328600 0.000019 0.000005 16.285700 16.833800 -45.251400 22.291600 -0.000001 0.000005 23.942900 5.247640 1.495100 12.994500 -0.242716 -4.980390 91.795800 -6.717170 -74.994600 -5.348130 -0.000001 -0.000004 -49.768700 -41.153100 -92.588000 -24.328900 0.000322 -0.000009 5.071280 4.842510 -46.437500 -22.291500 -0.000108 -0.000004 23.086400 5.447650 -4.555890 -2.192480 -6.469440 -0.000000 -173.206000 -12.789700 3.818750 39.081100 -0.000007 -0.000012 -0.247047 0.457407 28.374000 40.985400 -0.000006 -0.000013 -0.335414 6.898720 -73.729000 11.754300 -0.000000 0.000003 -0.000250 -0.002232 -16.661200 -2.192510 6.469440 -0.000001 172.095000 22.135900 -174.415000 -39.081100 -0.002282 -0.040193 -0.103960 0.205295 27.587200 -40.985400 0.000008 0.000006 6.856710 18.243100 -75.532700 -11.754300 -0.000006 -0.000006 -0.000436 -0.007040 -16.859800
0.000000 0.000000 0.000000 0.000000 0.000000 -0.000000 -0.883695 90.461400 5.584760 89.212300 -2.764760 7.712260 15.735700 0.000005 -0.000001 72.524600 88.677700 -72.286600 8.984550 -0.406207 -0.000000 -5.242040 -0.820255 0.438792 16.377300 -0.000001 -0.000001 -0.118333 -4.281740 3.054680 6.456720 -0.000001 -0.000000 7.348610 -3.503430 -2.680390 12.994200 -0.242716 4.980390 -86.507700 -8.857880 -68.380400 5.348090 -0.000007 -0.000001 -56.238600 -44.398400 -97.915900 24.328600 0.000019 0.000005 16.182500 16.769600 -45.165300 22.291600 -0.000001 0.000005 23.785700 5.245600 1.548660 12.994500 -0.242716 -4.980390 91.819200 -6.751040 -74.880800 -5.348130 -0.000001 -0.000004 -49.711500 -41.489100 -92.778300 -24.328900 0.000322 -0.000009 4.975880 4.753510 -46.420900 -22.291500 -0.000108 -0.000004 23.066500 5.447720 -4.558140 -2.192480 -6.469440 -0.000000 -173.160000 -13.001100 3.677800 39.081100 -0.000007 -0.000012 -0.248948 0.464075 28.211300 40.985400 -0.000006 -0.000013 -0.329938 6.993830 -73.635200 11.754300 -0.000000 0.000003 -0.000239 -0.002147 -16.658100 -2.192510 6.469440 -0.000001 172.215000 22.261100 -174.571000 -39.081100 -0.002282 -0.040193 -0.096343 0.192190 27.406900 -40.985400 0.000008 0.000006 7.070460 18.360600 -75.513100 -11.754300 -0.000006 -0.000006 -0.000523 -0.008387 -16.914500
0.000000 0.000000 0.000000 0.000000 0.000000 -0.000000 -0.882748 90.493100 5.553050 89.182600 -2.870720 7.492950 15.735700 0.000005 -0.000001 73.735900 88.690400 -73.518500 8.984550 -0.406207 -0.000000 -5.250340 -0.757410 0.400467 16.377300 -0.000001 -0.000001 -0.077479 -4.236120 3.005370 6.456720 -0.000001 -0.000000 7.294360 -3.528350 -2.599250 12.994200 -0.242716 4.980390 -86.510800 -8.757670 -68.175600 5.348090 -0.000007 -0.000001 -55.753700 -44.937600 -97.908000 24.328600 0.000019 0.000005 16.130300 16.631200 -45.298300 22.291600 -0.000001 0.000005 23.578000 5.243180 1.612270 12.994500 -0.242716 -4.980390 91.819600 -6.683680 -74.732300 -5.348130 -0.000001 -0.000004 -49.454600 -41.827700 -92.797200 -24.328900 0.000322 -0.000009 4.981820 4.743480 -46.515600 -22.291500 -0.000108 -0.000004 22.988000 5.446380 -4.510530 -2.192480 -6.469440 -0.000000 -173.195000 -13.073500 3.518360 39.081100 -0.000007 -0.000012 -0.242875 0.455395 28.072700 40.985400 -0.000006 -0.000013 -0.353027 6.919700 -73.552000 11.754300 -0.000000 0.000003 -0.000251 -0.002242 -16.661600 -2.192510 6.469440 -0.000001 172.356000 22.284100 -174.781000 -39.081100 -0.002282 -0.040193 -0.089059 0.179156 27.274000 -40.985400 0.000008 0.000006 7.185280 18.424400 -75.457500 -11.754300 -0.000006 -0.000006 -0.000470 -0.007573 -16.881400
0.000000 0.000000 0.000000 0.000000 0.000000 -0.000000 -0.884096 90.519800 5.489990 89.176600 -2.961360 7.321690 15.735700 0.000005 -0.000001 75.871700 88.679000 -75.685400 8.984550 -0.406207 -0.000000 -5.203090 -0.665238 0.342888 16.377300 -0.000001 -0.000001 0.011597 -4.200500 2.952790 6.456720 -0.000001 -0.000000 7.123740 -3.556180 -2.504330 12.994200 -0.242716 4.980390 -86.540300 -8.592070 -67.968200 5.348090 -0.000007 -0.000001 -55.242600 -45.340500 -97.696700 24.328600 0.000019 0.000005 15.764600 16.002900 -45.679800 22.291600 -0.000001 0.000005 23.335500 5.239610 1.705630 12.994500 -0.242716 -4.980390 91.794400 -6.487340 -74.502000 -5.348130 -0.000001 -0.000004 -48.992500 -42.079900 -92.536500 -24.328900 0.000322 -0.000009 4.837460 4.547130 -46.877300 -22.291500 -0.000108 -0.000004 23.032300 5.444010 -4.426730 -2.192480 -6.469440 -0.000000 -173.281000 -12.996600 3.327450 39.081100 -0.000007 -0.000012 -0.243806 0.458668 27.993400 40.985400 -0.000006 -0.000013 -0.402195 6.733100 -73.462000 11.754300 -0.000000 0.000003 -0.000251 -0.002238 -16.661400 -2.192510 6.469440 -0.000001 172.477000 22.225100 -175.008000 -39.081100 -0.002282 -0.040193 -0.087435 0.176533 27.204300 -40.985400 0.000008 0.000006 7.185830 18.427000 -75.363800 -11.754300 -0.000006 -0.000006 -0.000407 -0.006591 -16.841500
0.000000 0.000000 0.000000 0.000000 0.000000 -0.000000 -0.895316 90.538300 5.425390 89.144200 -2.969660 7.213330 15.735700 0.000005 -0.000001 77.269000 88.616600 -77.114800 8.984550 -0.406207 -0.000000 -5.066460 -0.626360 0.280941 16.377300 -0.000001 -0.000001 0.064145 -4.201800 2.935820 6.456720 -0.000001 -0.000000 6.882380 -3.557700 -2.442160 12.994200 -0.242716 4.980390 -86.590600 -8.374880 -67.753700 5.348090 -0.000007 -0.000001 -54.688100 -45.582000 -97.101500 24.328600 0.000019 0.000005 15.192000 14.869400 -46.619600 22.291600 -0.000001 0.000005 22.974100 5.231060 1.928770 12.994500 -0.242716 -4.980390 91.729000 -6.171640 -74.315900 -5.348130 -0.000001 -0.000004 -48.317500 -42.265600 -91.701500 -24.328900 0.000322 -0.000009 4.288100 3.895940 -47.827700 -22.291500 -0.000108 -0.000004 23.079600 5.441920 -4.353290 -2.192480 -6.469440 -0.000000 -173.308000 -12.908300 3.172480 39.081100 -0.000007 -0.000012 -0.241557 0.454849 27.971800 40.985400 -0.000006 -0.000013 -0.431194 6.634760 -73.402800 11.754300 -0.000000 0.000003 -0.000243 -0.002177 -16.659200 -2.192510 6.469440 -0.000001 172.602000 22.229500 -175.160000 -39.081100 -0.002282 -0.040193 -0.085694 0.173513 27.155300 -40.985400 0.000008 0.000006 7.186000 18.378700 -75.284300 -11.754300 -0.000006 -0.000006 -0.000554 -0.008861 -16.933700
0.000000 0.000000 0.000000 0.000000 0.000000 -0.000000 -0.905463 90.569800 5.332620 89.128100 -2.995410 7.157600 15.735700 0.000005 -0.000001 79.286700 88.534300 -79.168100 8.984550 -0.406207 -0.000000 -4.885270 -0.557484 0.213664 16.377300 -0.000001 -0.000001 0.050212 -4.180760 2.881110 6.456720 -0.000001 -0.000000 6.717650 -3.578300 -2.311000 12.994200 -0.242716 4.980390 -86.674100 -8.093490 -67.570400 5.348090 -0.000007 -0.000001 -54.075400 -45.493500 -95.898600 24.328600 0.000019 0.000005 14.778300 13.517400 -48.458800 22.291600 -0.000001 0.000005 22.623900 5.219670 2.221170 12.994500 -0.242716 -4.980390 91.614500 -5.758590 -74.308900 -5.348130 -0.000001 -0.000004 -47.060500 -42.501300 -89.933600 -24.328900 0.000322 -0.000009 4.024760 3.471190 -49.296600 -22.291500 -0.000108 -0.000004 23.220100 5.437560 -4.200700 -2.192480 -6.469440 -0.000000 -173.332000 -12.877100 3.085360 39.081100 -0.000007 -0.000012 -0.240167 0.453799 27.889800 40.985400 -0.000006 -0.000013 -0.461107 6.541460 -73.291900 11.754300 -0.000000 0.000003 -0.000258 -0.002296 -16.663500 -2.192510 6.469440 -0.000001 172.714000 22.202000 -175.270000 -39.081100 -0.002282 -0.040193 -0.076099 0.155252 27.088500 -40.985400 0.000008 0.000006 7.362140 18.317800 -75.242200 -11.754300 -0.000006 -0.000006 -0.000497 -0.007984 -16.898100
